<?xml version="1.0" encoding="UTF-8"?>
<!DOCTYPE svg PUBLIC "-//W3C//DTD SVG 1.1//EN" "http://www.w3.org/Graphics/SVG/1.1/DTD/svg11.dtd">
<!-- Creator: CorelDRAW X7 -->
<svg xmlns="http://www.w3.org/2000/svg" xml:space="preserve" width="2.9632mm" height="2.3514mm" version="1.1" style="shape-rendering:geometricPrecision; text-rendering:geometricPrecision; image-rendering:optimizeQuality; fill-rule:evenodd; clip-rule:evenodd"
viewBox="0 0 16 13"
 xmlns:xlink="http://www.w3.org/1999/xlink">
 <defs>
  <style type="text/css">
   <![CDATA[
    .fil0 {fill:white}
   ]]>
  </style>
 </defs>
 <g id="Layer_x0020_1">
  <metadata id="CorelCorpID_0Corel-Layer"/>
  <g id="_2878020913504">
   <path class="fil0" d="M4 4c1,0 2,-1 2,-2 0,-1 -1,-2 -2,-2 -1,0 -2,1 -2,2 0,1 1,2 2,2zm0 -3c1,0 2,0 2,1 0,1 -1,2 -2,2 -1,0 -2,-1 -2,-2 0,-1 1,-1 2,-1z"/>
   <path class="fil0" d="M10 4c1,0 2,-1 2,-2 0,-1 -1,-2 -2,-2 -1,0 -2,1 -2,2 0,1 1,2 2,2zm0 -3c1,0 1,0 1,1 0,1 0,2 -1,2 -1,0 -2,-1 -2,-2 0,-1 1,-1 2,-1z"/>
   <path class="fil0" d="M13 7c0,0 0,0 0,0 0,0 0,0 0,0 0,0 0,0 0,0 -1,-1 -2,-2 -3,-2 -1,0 -2,1 -3,1 0,0 0,0 0,0 0,0 1,0 1,0 0,0 1,0 2,0 1,0 2,0 3,1z"/>
   <path class="fil0" d="M4 5c-2,0 -4,2 -4,4 0,0 0,1 0,1 0,0 1,-1 1,-1 0,-2 1,-3 3,-3 2,0 4,1 4,3 0,0 0,1 0,1 0,0 0,-1 0,-1 0,-2 -2,-4 -4,-4z"/>
   <path class="fil0" d="M13 8c-1,0 -2,1 -2,2 0,2 1,3 2,3 2,0 3,-1 3,-3 0,-1 -1,-2 -3,-2zm0 4c-1,0 -1,-1 -1,-2 0,-1 0,-2 1,-2 2,0 2,1 2,2 0,1 0,2 -2,2z"/>
   <path class="fil0" d="M14 10l0 0 0 -1c0,0 0,0 -1,0 0,0 0,0 0,0l0 1 0 0c-1,0 -1,0 -1,0 0,0 0,0 1,0l0 0 0 1c0,0 0,0 0,0 1,0 1,0 1,0l0 -1 0 0c0,0 1,0 1,0 0,0 -1,0 -1,0z"/>
  </g>
 </g>
</svg>
