<?xml version="1.0" encoding="UTF-8"?>
<!DOCTYPE svg PUBLIC "-//W3C//DTD SVG 1.1//EN" "http://www.w3.org/Graphics/SVG/1.1/DTD/svg11.dtd">
<!-- Creator: CorelDRAW X7 -->
<svg xmlns="http://www.w3.org/2000/svg" xml:space="preserve" width="2.9633mm" height="3.1957mm" version="1.1" style="shape-rendering:geometricPrecision; text-rendering:geometricPrecision; image-rendering:optimizeQuality; fill-rule:evenodd; clip-rule:evenodd"
viewBox="0 0 21 23"
 xmlns:xlink="http://www.w3.org/1999/xlink">
 <defs>
  <style type="text/css">
   <![CDATA[
    .fil0 {fill:#2C5672}
   ]]>
  </style>
 </defs>
 <g id="Layer_x0020_1">
  <metadata id="CorelCorpID_0Corel-Layer"/>
  <path class="fil0" d="M21 0c0,0 0,0 0,0l0 0 0 0 -13 2c0,0 -1,0 -1,0l0 15c0,-1 -1,-2 -3,-2 -2,0 -4,2 -4,4 0,2 2,4 4,4 2,0 4,-2 4,-4 0,0 0,0 0,0 0,0 0,0 0,0l0 -12 12 -2 0 8c0,-1 -2,-2 -3,-2 -2,0 -4,2 -4,4 0,2 2,4 4,4 2,0 4,-2 4,-4 0,0 0,0 0,0l0 -15c0,0 0,0 0,0zm-17 22c-2,0 -3,-1 -3,-3 0,-2 1,-3 3,-3 2,0 3,1 3,3 0,2 -1,3 -3,3zm13 -4c-2,0 -3,-1 -3,-3 0,-2 1,-3 3,-3 2,0 3,1 3,3 0,2 -1,3 -3,3zm-9 -12l0 -4 12 -1 0 3 -12 2z"/>
 </g>
</svg>
