<?xml version="1.0" encoding="UTF-8"?>
<!DOCTYPE svg PUBLIC "-//W3C//DTD SVG 1.1//EN" "http://www.w3.org/Graphics/SVG/1.1/DTD/svg11.dtd">
<!-- Creator: CorelDRAW X7 -->
<svg xmlns="http://www.w3.org/2000/svg" xml:space="preserve" width="2.9633mm" height="2.0632mm" version="1.1" style="shape-rendering:geometricPrecision; text-rendering:geometricPrecision; image-rendering:optimizeQuality; fill-rule:evenodd; clip-rule:evenodd"
viewBox="0 0 109 76"
 xmlns:xlink="http://www.w3.org/1999/xlink">
 <defs>
  <style type="text/css">
   <![CDATA[
    .fil0 {fill:#2C5672}
   ]]>
  </style>
 </defs>
 <g id="Layer_x0020_1">
  <metadata id="CorelCorpID_0Corel-Layer"/>
  <g id="_2878083063952">
   <path class="fil0" d="M26 29c-12,0 -21,9 -21,21 0,12 9,21 21,21l60 0c10,0 18,-8 18,-18 0,-10 -8,-18 -18,-18 -1,0 -1,0 -2,0 -1,0 -1,0 -2,-1 0,0 0,-1 0,-2l0 0c0,-1 0,-1 0,-2 0,-14 -12,-25 -26,-25 -6,0 -12,2 -17,6 -5,4 -8,10 -9,16 0,1 -1,2 -2,2 -1,0 -2,0 -2,0zm60 47l-60 0c-14,0 -26,-12 -26,-26 0,-14 12,-26 26,-26 0,0 0,0 0,0 1,-6 5,-12 10,-16 5,-5 12,-8 20,-8 17,0 30,13 30,30 13,0 23,10 23,23 0,13 -10,23 -23,23z"/>
   <path class="fil0" d="M39 30c0,0 0,0 0,0 -2,0 -3,-1 -2,-2 1,-10 9,-17 19,-17 1,0 2,1 2,2 0,2 -1,3 -2,3 -8,0 -14,5 -15,12 0,2 -1,2 -2,2z"/>
  </g>
 </g>
</svg>
