<?xml version="1.0" encoding="UTF-8"?>
<!DOCTYPE svg PUBLIC "-//W3C//DTD SVG 1.1//EN" "http://www.w3.org/Graphics/SVG/1.1/DTD/svg11.dtd">
<!-- Creator: CorelDRAW X7 -->
<svg xmlns="http://www.w3.org/2000/svg" xml:space="preserve" width="3.0904mm" height="3.2461mm" version="1.1" style="shape-rendering:geometricPrecision; text-rendering:geometricPrecision; image-rendering:optimizeQuality; fill-rule:evenodd; clip-rule:evenodd"
viewBox="0 0 31 33"
 xmlns:xlink="http://www.w3.org/1999/xlink">
 <defs>
  <style type="text/css">
   <![CDATA[
    .str0 {stroke:#203D5B;stroke-width:1.28839}
    .fil0 {fill:#ECECEC}
   ]]>
  </style>
 </defs>
 <g id="Layer_x0020_1">
  <metadata id="CorelCorpID_0Corel-Layer"/>
  <path class="fil0 str0" d="M18 21l10 11c1,0 2,0 2,0l0 0c1,-1 1,-2 0,-2l-10 -10c2,-2 3,-5 3,-8 0,-6 -5,-11 -11,-11 -6,0 -11,5 -11,11 0,6 5,11 11,11 2,0 4,0 6,-2zm-6 -17c5,0 8,3 8,8 0,5 -3,8 -8,8 -5,0 -8,-3 -8,-8 0,-5 3,-8 8,-8z"/>
 </g>
</svg>
