<?xml version="1.0" encoding="UTF-8"?>
<!DOCTYPE svg PUBLIC "-//W3C//DTD SVG 1.1//EN" "http://www.w3.org/Graphics/SVG/1.1/DTD/svg11.dtd">
<!-- Creator: CorelDRAW X7 -->
<svg xmlns="http://www.w3.org/2000/svg" xml:space="preserve" width="3.5734mm" height="3.5202mm" version="1.1" style="shape-rendering:geometricPrecision; text-rendering:geometricPrecision; image-rendering:optimizeQuality; fill-rule:evenodd; clip-rule:evenodd"
viewBox="0 0 55 54"
 xmlns:xlink="http://www.w3.org/1999/xlink">
 <defs>
  <style type="text/css">
   <![CDATA[
    .fil0 {fill:#2C5672}
   ]]>
  </style>
 </defs>
 <g id="Layer_x0020_1">
  <metadata id="CorelCorpID_0Corel-Layer"/>
  <g id="_2878088952960">
   <path class="fil0" d="M27 37c1,0 2,1 2,1l11 5c0,1 0,0 1,0 0,0 0,0 0,0l-2 -12c0,-1 0,-3 1,-3l9 -9c0,0 0,-1 0,-1 0,0 0,0 -1,0l-12 -2c-1,0 -2,-1 -3,-2l-5 -11 0 0c0,0 0,0 -1,0 0,0 0,0 0,0l-6 11c0,1 -1,2 -2,2l-12 2c-1,0 -1,0 -1,0 0,0 0,1 0,1l9 9c1,0 1,2 1,3l-2 12c0,0 0,0 0,0 0,0 1,1 1,0l11 -5c0,0 1,-1 1,-1zm13 9c0,0 -1,0 -2,0l-10 -6c0,0 -1,0 -1,0l-11 6c-1,1 -2,1 -3,0 -2,-1 -2,-2 -2,-4l2 -12c0,0 0,0 0,0l-9 -9c-1,-1 -1,-2 -1,-4 1,-1 2,-2 3,-2l12 -2c0,0 1,0 1,0l5 -11c1,-1 2,-2 3,-2 2,0 3,1 4,2l5 11c0,0 0,0 1,0l12 2c1,0 2,1 2,2 1,2 1,3 0,4l-9 9c0,0 0,0 0,0l2 12c0,2 -1,3 -2,4 0,0 -1,0 -2,0z"/>
   <path class="fil0" d="M42 7c0,0 -1,0 -1,-1 -1,0 -1,-1 0,-2l1 -2c1,0 2,0 2,0 1,0 1,1 1,2l-2 2c0,1 -1,1 -1,1z"/>
   <path class="fil0" d="M13 7c-1,0 -1,0 -1,-1l-2 -2c0,-1 0,-2 1,-2 0,0 1,0 2,0l1 2c1,1 0,2 0,2 -1,1 -1,1 -1,1z"/>
   <path class="fil0" d="M1 35c0,0 -1,0 -1,-1 0,-1 0,-1 1,-2l2 0c1,-1 2,0 2,0 1,1 0,2 -1,2l-2 1c0,0 0,0 -1,0z"/>
   <path class="fil0" d="M27 54c0,0 -1,-1 -1,-1l0 -3c0,-1 1,-2 1,-2 1,0 2,1 2,2l0 3c0,0 -1,1 -2,1z"/>
   <path class="fil0" d="M53 35c0,0 0,0 0,0l-3 -1c0,0 -1,-1 -1,-2 1,0 2,-1 2,0l3 0c1,1 1,1 1,2 0,1 -1,1 -2,1z"/>
  </g>
 </g>
</svg>
