<?xml version="1.0" encoding="UTF-8"?>
<!DOCTYPE svg PUBLIC "-//W3C//DTD SVG 1.1//EN" "http://www.w3.org/Graphics/SVG/1.1/DTD/svg11.dtd">
<!-- Creator: CorelDRAW X7 -->
<svg xmlns="http://www.w3.org/2000/svg" xml:space="preserve" width="2.9633mm" height="2.7658mm" version="1.1" style="shape-rendering:geometricPrecision; text-rendering:geometricPrecision; image-rendering:optimizeQuality; fill-rule:evenodd; clip-rule:evenodd"
viewBox="0 0 15 14"
 xmlns:xlink="http://www.w3.org/1999/xlink">
 <defs>
  <style type="text/css">
   <![CDATA[
    .fil0 {fill:#2C5672}
   ]]>
  </style>
 </defs>
 <g id="Layer_x0020_1">
  <metadata id="CorelCorpID_0Corel-Layer"/>
  <g id="_2878061382720">
   <path class="fil0" d="M6 6l-2 0 -1 -1c0,0 0,0 0,0 0,0 -1,0 -1,0l0 3c0,1 1,1 1,1l0 0c1,0 1,0 1,1l0 3c0,0 0,0 0,0l0 0c0,0 -1,0 -1,0l0 -3c0,0 0,0 0,0l-2 0c0,0 -1,-1 -1,-1l0 -5 3 0 2 1c0,0 0,0 0,0l1 0c1,0 1,1 1,1 0,0 0,0 -1,0zm0 -1l-1 0 -2 -1c0,-1 0,-1 0,-1l-3 0c0,0 0,1 0,1l0 5c0,1 1,1 1,1l2 0c0,0 0,0 0,0l0 3c0,1 0,1 1,1l0 0c1,0 1,0 1,-1l0 -3c0,-1 -1,-2 -2,-2l0 0 0 -2 1 1c0,0 0,0 0,0l2 0c1,0 1,-1 1,-1 0,-1 0,-1 -1,-1z"/>
   <path class="fil0" d="M14 9c0,0 0,1 0,1l-2 0c0,0 -1,0 -1,0l0 3c0,0 0,0 0,0l0 0c0,0 -1,0 -1,0l0 -3c0,-1 1,-1 2,-1l0 0c0,0 0,0 0,-1l0 -3c0,0 0,0 0,0 0,0 0,0 0,0l-1 1 -3 0c0,0 0,0 0,0 0,0 0,-1 0,-1l2 0c0,0 0,0 0,0l2 -1 2 0 0 5zm1 -6l-3 0c0,0 0,0 -1,1l-1 1 -2 0c0,0 -1,0 -1,1 0,0 1,1 1,1l3 0c0,0 0,0 0,0l1 -1 0 2 0 0c-1,0 -2,1 -2,2l0 3c0,1 0,1 1,1l0 0c1,0 1,0 1,-1l0 -3c0,0 0,0 0,0l2 0c0,0 1,0 1,-1l0 -5c0,0 0,-1 0,-1z"/>
   <path class="fil0" d="M6 13c0,0 0,0 0,1 0,0 0,0 0,0l2 0c1,0 1,0 1,0 0,-1 0,-1 -1,-1l0 0 0 -5 2 0c1,0 1,0 1,0 0,0 0,-1 -1,-1l-6 0c0,0 0,1 0,1 0,0 0,0 0,0l3 0 0 5 -1 0z"/>
   <path class="fil0" d="M12 1l0 0c1,0 1,1 2,1 0,0 -1,1 -1,0 -1,0 -1,0 -1,-1zm1 -1c1,0 1,1 1,1 0,0 -1,0 -2,0l0 -1 1 0zm2 1c0,0 -1,-1 -2,-1l-1 0c0,0 0,0 0,0l0 1c0,1 0,2 1,2 1,0 2,-1 2,-2z"/>
   <path class="fil0" d="M2 0l1 0 0 1c-1,0 -2,0 -2,0 0,0 0,-1 1,-1zm0 2c-1,0 -1,0 -1,0 0,0 1,-1 2,-1l0 0c0,1 -1,1 -1,1zm0 1c1,0 1,-1 1,-2l0 -1c0,0 0,0 0,0l-1 0c-1,0 -2,1 -2,1 0,1 1,2 2,2z"/>
  </g>
 </g>
</svg>
