<?xml version="1.0" encoding="UTF-8"?>
<!DOCTYPE svg PUBLIC "-//W3C//DTD SVG 1.1//EN" "http://www.w3.org/Graphics/SVG/1.1/DTD/svg11.dtd">
<!-- Creator: CorelDRAW X7 -->
<svg xmlns="http://www.w3.org/2000/svg" xml:space="preserve" width="3.0394mm" height="2.6983mm" version="1.1" style="shape-rendering:geometricPrecision; text-rendering:geometricPrecision; image-rendering:optimizeQuality; fill-rule:evenodd; clip-rule:evenodd"
viewBox="0 0 22 19"
 xmlns:xlink="http://www.w3.org/1999/xlink">
 <defs>
  <style type="text/css">
   <![CDATA[
    .str0 {stroke:#FEFEFE;stroke-width:0.542847}
    .str1 {stroke:#203D5B;stroke-width:0.542847}
    .fil0 {fill:#FEFEFE}
   ]]>
  </style>
 </defs>
 <g id="Layer_x0020_1">
  <metadata id="CorelCorpID_0Corel-Layer"/>
  <path class="fil0 str0" d="M15 8c0,0 1,0 1,1 0,0 -1,0 -1,0 0,0 -1,0 -1,0 0,-1 1,-1 1,-1z"/>
  <path class="fil0 str1" d="M17 14c-1,1 -4,2 -6,2 -1,0 -1,0 -2,0 -1,0 -1,0 -2,0 0,0 0,0 0,0l0 0 -3 1 1 -2c0,0 0,-1 -1,-1 0,-1 -1,-1 -2,-2 0,-1 0,-2 0,-3 0,-2 1,-4 2,-5 2,-2 4,-2 7,-2 2,0 5,0 6,2 2,1 3,3 3,5 0,2 -1,4 -3,5zm4 -5c0,-3 -1,-5 -3,-6 -2,-2 -4,-3 -7,-3 -3,0 -5,1 -8,3 -2,1 -3,3 -3,6 0,1 1,2 1,3 1,1 1,2 2,3l0 3c0,1 0,1 0,1 1,0 1,0 1,0l3 -2c1,0 1,0 2,0 1,0 1,0 2,0 3,0 5,0 7,-2 2,-2 3,-4 3,-6z"/>
  <path class="fil0 str0" d="M7 8c0,0 0,0 0,1 0,0 0,0 0,0 0,0 -1,0 -1,0 0,-1 1,-1 1,-1z"/>
 </g>
</svg>
