<?xml version="1.0" encoding="UTF-8"?>
<!DOCTYPE svg PUBLIC "-//W3C//DTD SVG 1.1//EN" "http://www.w3.org/Graphics/SVG/1.1/DTD/svg11.dtd">
<!-- Creator: CorelDRAW X7 -->
<svg xmlns="http://www.w3.org/2000/svg" xml:space="preserve" width="2.9634mm" height="2.6416mm" version="1.1" style="shape-rendering:geometricPrecision; text-rendering:geometricPrecision; image-rendering:optimizeQuality; fill-rule:evenodd; clip-rule:evenodd"
viewBox="0 0 82 73"
 xmlns:xlink="http://www.w3.org/1999/xlink">
 <defs>
  <style type="text/css">
   <![CDATA[
    .fil0 {fill:#2C5672}
   ]]>
  </style>
 </defs>
 <g id="Layer_x0020_1">
  <metadata id="CorelCorpID_0Corel-Layer"/>
  <g id="_2878061370560">
   <path class="fil0" d="M81 29l-39 -29c0,0 0,0 -1,0 0,0 -1,0 -1,0l-39 29c-1,1 -1,2 -1,3 1,1 2,1 3,0l38 -27 38 27c0,1 1,1 1,1 1,0 1,-1 2,-1 0,-1 0,-2 -1,-3z"/>
   <path class="fil0" d="M71 33c-1,0 -2,1 -2,2l0 34 -17 0 0 -19c0,-5 -5,-10 -11,-10 -6,0 -11,5 -11,10l0 19 -17 0 0 -34c0,-1 -1,-2 -2,-2 -1,0 -2,1 -2,2l0 36c0,1 1,2 2,2l22 0c1,0 2,-1 2,-2 0,0 0,0 0,0l0 -21c0,-3 3,-6 6,-6 4,0 6,3 6,6l0 21c0,0 0,0 0,0 1,1 1,2 3,2l21 0c1,0 2,-1 2,-2l0 -36c0,-1 -1,-2 -2,-2z"/>
  </g>
 </g>
</svg>
